<?xml version="1.0" encoding="UTF-8" standalone="no"?>
<!-- Created with Inkscape (http://www.inkscape.org/) -->

<svg
   xmlns:dc="http://purl.org/dc/elements/1.1/"
   xmlns:cc="http://creativecommons.org/ns#"
   xmlns:rdf="http://www.w3.org/1999/02/22-rdf-syntax-ns#"
   xmlns:svg="http://www.w3.org/2000/svg"
   xmlns="http://www.w3.org/2000/svg"
   xmlns:sodipodi="http://sodipodi.sourceforge.net/DTD/sodipodi-0.dtd"
   xmlns:inkscape="http://www.inkscape.org/namespaces/inkscape"
   width="1000"
   height="1000"
   viewBox="0 0 1000 1000"
   version="1.1"
   id="svg825"
   inkscape:version="0.92.4 (5da689c313, 2019-01-14)"
   sodipodi:docname="Q.svg">
  <defs
     id="defs819" />
  <sodipodi:namedview
     id="base"
     pagecolor="#ffffff"
     bordercolor="#666666"
     borderopacity="1.0"
     inkscape:pageopacity="0.0"
     inkscape:pageshadow="2"
     inkscape:zoom="0.7"
     inkscape:cx="456.32617"
     inkscape:cy="486.81066"
     inkscape:document-units="px"
     inkscape:current-layer="layer1"
     showgrid="false"
     units="px"
     inkscape:window-width="1920"
     inkscape:window-height="1001"
     inkscape:window-x="-9"
     inkscape:window-y="-9"
     inkscape:window-maximized="1">
    <sodipodi:guide
       id="guide217"
       inkscape:label="baseline"
       position="0,200"
       orientation="0,1"
       inkscape:locked="false" />
    <sodipodi:guide
       id="guide219"
       inkscape:label="ascender"
       position="0,1000"
       orientation="0,1"
       inkscape:locked="false" />
    <sodipodi:guide
       id="guide221"
       inkscape:label="caps"
       position="0,950"
       orientation="0,1"
       inkscape:locked="false" />
    <sodipodi:guide
       id="guide223"
       inkscape:label="xheight"
       position="0,700"
       orientation="0,1"
       inkscape:locked="false" />
    <sodipodi:guide
       id="guide225"
       inkscape:label="descender"
       position="0,0"
       orientation="0,1"
       inkscape:locked="false" />
  </sodipodi:namedview>
  <metadata
     id="metadata822">
    <rdf:RDF>
      <cc:Work
         rdf:about="">
        <dc:format>image/svg+xml</dc:format>
        <dc:type
           rdf:resource="http://purl.org/dc/dcmitype/StillImage" />
        <dc:title></dc:title>
      </cc:Work>
    </rdf:RDF>
  </metadata>
  <g
     inkscape:label="Layer 1"
     inkscape:groupmode="layer"
     id="layer1"
     transform="translate(0,-42.519726)">
    <path
       style="display:inline;fill:#000000;stroke-width:1"
       d="m 288.0625,93.816592 c -175.04586,0 -166.91619,-0.787097 -207.13476,20.078128 C 45.42577,133.05131 0,181.02866 0,243.57442 v 445.29492 c 0,36.59555 20.83217,83.06596 52.74219,115.38867 18.17173,15.51112 39.9577,26.897 63.26562,33.0625 17.84818,4.72126 28.06681,4.97755 177.24414,4.43945 59.52899,-0.21471 96.61621,-0.36575 120.77539,-0.78125 v 156.58985 c 0,0 94.1764,-115.01458 125.89844,-155.04883 27.63497,-43.56105 36.17359,-102.6109 36.19922,-153.65039 0,-148.43164 0,-296.86328 0,-445.29492 0,-59.84348 -35.87308,-99.61175 -80.92969,-129.6797 C 454.97675,93.029495 463.10838,93.816592 288.0625,93.816592 Z M 195.25195,256.01387 h 185.6211 c 15.75619,0 31.75586,18.39285 31.75586,36.14844 0.4793,121.36269 0.96007,232.72504 1.39843,354.08789 0,15.81534 -11.47873,32.77539 -28.77343,32.77539 H 190.87109 c -16.17249,0 -28.77539,-14.46925 -28.77539,-32.77539 0.45368,-121.36279 0.90383,-232.72526 1.39844,-354.08789 0,-19.87177 18.16199,-36.14844 31.75781,-36.14844 z"
       id="path2260"
       inkscape:connector-curvature="0"
       sodipodi:nodetypes="scsscssccccccsssccssccs" />
  </g>
</svg>
