<?xml version="1.0" encoding="utf-8"?>
<!-- Generator: Adobe Illustrator 16.0.0, SVG Export Plug-In . SVG Version: 6.00 Build 0)  -->
<!DOCTYPE svg PUBLIC "-//W3C//DTD SVG 1.1//EN" "http://www.w3.org/Graphics/SVG/1.1/DTD/svg11.dtd">
<svg version="1.1" id="Layer_1" xmlns="http://www.w3.org/2000/svg" xmlns:xlink="http://www.w3.org/1999/xlink" x="0px" y="0px"
	 width="1000px" height="1000px" viewBox="0 0 1000 1000" enable-background="new 0 0 1000 1000" xml:space="preserve">
<g id="svg825" xmlns:dc="http://purl.org/dc/elements/1.1/" xmlns:cc="http://creativecommons.org/ns#" xmlns:rdf="http://www.w3.org/1999/02/22-rdf-syntax-ns#" xmlns:svg="http://www.w3.org/2000/svg" xmlns:sodipodi="http://sodipodi.sourceforge.net/DTD/sodipodi-0.dtd" xmlns:inkscape="http://www.inkscape.org/namespaces/inkscape" inkscape:version="0.92.4 (5da689c313, 2019-01-14)" sodipodi:docname="â™«.svg" display="none">
	
		<sodipodi:namedview  units="px" id="base" pagecolor="#ffffff" bordercolor="#666666" borderopacity="1.0" inkscape:zoom="0.49497475" inkscape:cx="186.39176" inkscape:cy="595.67106" showgrid="false" inkscape:pageopacity="0.0" inkscape:document-units="px" inkscape:current-layer="layer1" inkscape:window-y="-9" inkscape:window-maximized="1" inkscape:pageshadow="2" inkscape:window-width="1920" inkscape:window-x="-9" inkscape:window-height="1001">
		<sodipodi:guide  inkscape:label="baseline" position="0,200" orientation="0,1" inkscape:locked="false" id="guide217">
			</sodipodi:guide>
		<sodipodi:guide  inkscape:label="ascender" position="0,1000" orientation="0,1" inkscape:locked="false" id="guide219">
			</sodipodi:guide>
		<sodipodi:guide  inkscape:label="caps" position="0,950" orientation="0,1" inkscape:locked="false" id="guide221">
			</sodipodi:guide>
		<sodipodi:guide  inkscape:label="xheight" position="0,700" orientation="0,1" inkscape:locked="false" id="guide223">
			</sodipodi:guide>
		<sodipodi:guide  inkscape:label="descender" position="0,0" orientation="0,1" inkscape:locked="false" id="guide225">
			</sodipodi:guide>
	</sodipodi:namedview>
	<g id="layer1" transform="translate(0,-42.519726)" inkscape:label="Layer 1" inkscape:groupmode="layer" display="inline">
		<path id="path13" inkscape:connector-curvature="0" sodipodi:nodetypes="ccccccccccccccc" stroke="#000000" d="M585.151,92.52
			l-400,165.715c0,0,30.19,320.157-0.215,379.246c-30.924-6.693-65.395-1.279-95.641,15.021
			C27.144,686.02-0.471,755.411,27.616,807.494c28.087,52.083,101.241,67.133,163.393,33.614
			c45.757-24.708,74.41-70.174,72.473-114.997c2.119-127.539,1.652-255.797,1.67-383.592l248.572-108.572
			c0,0,27.015,260.511-1.821,322.547c-32.317-8.886-69.395-4.005-101.769,13.395c-62.152,33.518-89.768,102.909-61.682,154.992
			s101.24,67.135,163.393,33.617c43.983-23.772,72.312-66.843,72.511-110.246C587.615,465.079,585.151,277.178,585.151,92.52z"/>
	</g>
</g>
<g id="asterisk">
	<polygon points="490.119,489.167 660.71,359.212 446.314,354.35 375.436,151.95 304.558,354.35 90.162,359.212 260.753,489.167 
		199.127,694.572 375.437,572.489 551.744,694.572 	"/>
</g>
</svg>
