<?xml version="1.0" encoding="UTF-8" standalone="no"?>
<!-- Created with Inkscape (http://www.inkscape.org/) -->

<svg
   xmlns:dc="http://purl.org/dc/elements/1.1/"
   xmlns:cc="http://creativecommons.org/ns#"
   xmlns:rdf="http://www.w3.org/1999/02/22-rdf-syntax-ns#"
   xmlns:svg="http://www.w3.org/2000/svg"
   xmlns="http://www.w3.org/2000/svg"
   xmlns:sodipodi="http://sodipodi.sourceforge.net/DTD/sodipodi-0.dtd"
   xmlns:inkscape="http://www.inkscape.org/namespaces/inkscape"
   width="1000"
   height="1000"
   viewBox="0 0 1000 1000"
   version="1.1"
   id="svg825"
   inkscape:version="0.92.4 (5da689c313, 2019-01-14)"
   sodipodi:docname="3.svg">
  <defs
     id="defs819" />
  <sodipodi:namedview
     id="base"
     pagecolor="#ffffff"
     bordercolor="#666666"
     borderopacity="1.0"
     inkscape:pageopacity="0.0"
     inkscape:pageshadow="2"
     inkscape:zoom="0.7"
     inkscape:cx="544.8976"
     inkscape:cy="482.52495"
     inkscape:document-units="px"
     inkscape:current-layer="layer1"
     showgrid="false"
     units="px"
     inkscape:window-width="1920"
     inkscape:window-height="1001"
     inkscape:window-x="-9"
     inkscape:window-y="-9"
     inkscape:window-maximized="1">
    <sodipodi:guide
       id="guide217"
       inkscape:label="baseline"
       position="0,200"
       orientation="0,1"
       inkscape:locked="false" />
    <sodipodi:guide
       id="guide219"
       inkscape:label="ascender"
       position="0,1000"
       orientation="0,1"
       inkscape:locked="false" />
    <sodipodi:guide
       id="guide221"
       inkscape:label="caps"
       position="0,950"
       orientation="0,1"
       inkscape:locked="false" />
    <sodipodi:guide
       id="guide223"
       inkscape:label="xheight"
       position="0,700"
       orientation="0,1"
       inkscape:locked="false" />
    <sodipodi:guide
       id="guide225"
       inkscape:label="descender"
       position="0,0"
       orientation="0,1"
       inkscape:locked="false" />
  </sodipodi:namedview>
  <metadata
     id="metadata822">
    <rdf:RDF>
      <cc:Work
         rdf:about="">
        <dc:format>image/svg+xml</dc:format>
        <dc:type
           rdf:resource="http://purl.org/dc/dcmitype/StillImage" />
        <dc:title></dc:title>
      </cc:Work>
    </rdf:RDF>
  </metadata>
  <g
     inkscape:label="Layer 1"
     inkscape:groupmode="layer"
     id="layer1"
     transform="translate(0,-42.519726)">
    <path
       style="display:inline;fill:#000000;stroke:none;stroke-width:1px;stroke-linecap:butt;stroke-linejoin:miter;stroke-opacity:1"
       d="M 0,92.519726 97.98438,254.59981 h 94.44921 c 20.7186,0 34.85157,19.65871 34.85157,36.89258 0,14.84701 -2.71383,23.73039 -8.92969,33.45703 -34.74948,49.8529 -69.53806,89.93164 -120.37109,122.99414 40.11873,46.80511 80.67534,107.66438 116.88867,157.52539 10.44488,14.44938 12.62695,23.77363 12.62695,38.19336 0,17.85714 -14.49968,35.64258 -31.64258,35.64258 H 0 v 163.21484 h 265.41406 c 45.962,0 91.4185,-18.19385 118.1875,-44.96289 26.769,-26.76904 46.97266,-62.62948 46.97266,-112.12695 0,-49.49748 -22.22472,-80.81186 -50.00391,-118.1875 -10.07527,-13.55583 -74.49132,-85.64901 -99.30078,-119.29883 20.89986,-28.62927 103.40419,-86.17856 116.22461,-105.42383 31.3147,-47.00781 30.30469,-68.22197 30.30469,-95.49609 0,-40.84555 -14.49407,-77.62883 -44.95117,-108.08594 -30.4571,-30.45713 -73.2369,-46.417974 -117.6836,-46.417974 z"
       id="path261"
       inkscape:connector-curvature="0"
       sodipodi:nodetypes="ccsscccssccsssscssssc" />
  </g>
</svg>
