<?xml version="1.0" encoding="UTF-8" standalone="no"?>
<!-- Created with Inkscape (http://www.inkscape.org/) -->

<svg
   xmlns:dc="http://purl.org/dc/elements/1.1/"
   xmlns:cc="http://creativecommons.org/ns#"
   xmlns:rdf="http://www.w3.org/1999/02/22-rdf-syntax-ns#"
   xmlns:svg="http://www.w3.org/2000/svg"
   xmlns="http://www.w3.org/2000/svg"
   xmlns:sodipodi="http://sodipodi.sourceforge.net/DTD/sodipodi-0.dtd"
   xmlns:inkscape="http://www.inkscape.org/namespaces/inkscape"
   width="1000"
   height="1000"
   viewBox="0 0 1000 1000"
   version="1.1"
   id="svg825"
   inkscape:version="0.92.4 (5da689c313, 2019-01-14)"
   sodipodi:docname="6.svg">
  <defs
     id="defs819" />
  <sodipodi:namedview
     id="base"
     pagecolor="#ffffff"
     bordercolor="#666666"
     borderopacity="1.0"
     inkscape:pageopacity="0.0"
     inkscape:pageshadow="2"
     inkscape:zoom="0.7"
     inkscape:cx="544.8976"
     inkscape:cy="482.52495"
     inkscape:document-units="px"
     inkscape:current-layer="layer1"
     showgrid="false"
     units="px"
     inkscape:window-width="1920"
     inkscape:window-height="1001"
     inkscape:window-x="-9"
     inkscape:window-y="-9"
     inkscape:window-maximized="1">
    <sodipodi:guide
       id="guide217"
       inkscape:label="baseline"
       position="0,200"
       orientation="0,1"
       inkscape:locked="false" />
    <sodipodi:guide
       id="guide219"
       inkscape:label="ascender"
       position="0,1000"
       orientation="0,1"
       inkscape:locked="false" />
    <sodipodi:guide
       id="guide221"
       inkscape:label="caps"
       position="0,950"
       orientation="0,1"
       inkscape:locked="false" />
    <sodipodi:guide
       id="guide223"
       inkscape:label="xheight"
       position="0,700"
       orientation="0,1"
       inkscape:locked="false" />
    <sodipodi:guide
       id="guide225"
       inkscape:label="descender"
       position="0,0"
       orientation="0,1"
       inkscape:locked="false" />
  </sodipodi:namedview>
  <metadata
     id="metadata822">
    <rdf:RDF>
      <cc:Work
         rdf:about="">
        <dc:format>image/svg+xml</dc:format>
        <dc:type
           rdf:resource="http://purl.org/dc/dcmitype/StillImage" />
        <dc:title></dc:title>
      </cc:Work>
    </rdf:RDF>
  </metadata>
  <g
     inkscape:label="Layer 1"
     inkscape:groupmode="layer"
     id="layer1"
     transform="translate(0,-42.519726)">
    <path
       style="display:inline;fill:#000000;stroke:none;stroke-width:1px;stroke-linecap:butt;stroke-linejoin:miter;stroke-opacity:1"
       d="M 167.9375,92.519726 C 75.00346,92.519726 0,158.40113 0,249.00412 V 353.3088 c 0,0 0,213.33333 0,320 0,129.06277 76.31643,169.21094 163.39258,169.21094 66.91992,0 242.89258,0 242.89258,0 96.42857,0 155.66406,-77.52728 155.66406,-169.21094 V 517.00412 c 0,-90.60301 -75.00346,-157.63477 -167.9375,-157.63477 H 205.52539 c -23.73859,0 -42.13281,-13.59599 -42.13281,-39.60742 v -21.21875 c 0,-22.98097 17.61667,-42.93164 40.59765,-42.93164 H 471.07812 L 569.0625,92.519726 Z m 37.58789,430.000014 h 152.43359 c 22.98098,0 40.59766,21.04247 40.59766,44.02344 v 73.21875 c 0,26.01143 -18.39422,39.60742 -42.13281,39.60742 H 205.52539 c -34.53479,0 -42.13281,-20.33187 -42.13281,-39.60742 v -73.21875 c 0,-20.31211 19.91625,-44.02344 42.13281,-44.02344 z"
       id="path557"
       inkscape:connector-curvature="0"
       sodipodi:nodetypes="sscsssssccsssccszcssszssz" />
  </g>
</svg>
